<?xml version="1.0" encoding="UTF-8"?>
<!-- Created with Inkscape (http://www.inkscape.org/) -->
<svg width="16" height="15.971" version="1.1" viewBox="0 0 4.2333 4.2257" xmlns="http://www.w3.org/2000/svg">
 <g transform="translate(-68.013 -66.593)">
  <path d="m68.644 70.81c-0.27071-0.03193-0.49498-0.22258-0.59303-0.50413-0.02759-0.07923-0.03047-0.09613-0.0308-0.18105-3.28e-4 -0.07602 0.0034-0.1049 0.01946-0.15327 0.04128-0.12408 0.1011-0.22588 0.1893-0.32213 0.05964-0.06508 0.12182-0.11149 0.23578-0.17596l0.07881-0.04459-0.0044-1.4403-0.08941-0.05049c-0.17237-0.09734-0.27782-0.20558-0.35827-0.36778-0.0574-0.11571-0.07973-0.20766-0.07341-0.30222 0.02652-0.39679 0.46002-0.74618 0.81494-0.65681 0.18512 0.04661 0.37793 0.18005 0.47646 0.32975 0.1097 0.16666 0.12468 0.40272 0.03897 0.61402-0.05927 0.14612-0.15413 0.25439-0.29585 0.33766-0.14057 0.08259-0.13707 0.07057-0.14107 0.48442-0.0019 0.18148-0.0012 0.32996 0.0016 0.32996 0.0026 0 0.04021-0.01887 0.08364-0.04194 0.17554-0.09321 0.25672-0.10042 1.2541-0.11137 0.75764-0.0083 0.9459-0.01802 1.0219-0.05267 0.04669-0.02127 0.07602-0.14348 0.07626-0.31771 2.84e-4 -0.18752-0.01452-0.21629-0.15281-0.29768-0.12738-0.07497-0.20494-0.16081-0.26921-0.29795-0.09215-0.19663-0.09346-0.42843-0.0034-0.59982 0.08362-0.15913 0.2635-0.30067 0.46823-0.36842 0.07567-0.02504 0.20942-0.0271 0.29377-0.0045 0.21243 0.05688 0.41799 0.2365 0.50346 0.43992 0.03853 0.09172 0.05275 0.15832 0.05274 0.24714-8e-6 0.06866-0.0042 0.09313-0.02742 0.16179-0.06147 0.18144-0.17526 0.32906-0.33294 0.43195-0.14386 0.09387-0.15234 0.10904-0.1628 0.29125-0.0091 0.15848-0.01814 0.21784-0.04721 0.31004-0.05164 0.1638-0.15157 0.29691-0.24036 0.3202-0.10262 0.02692-0.42471 0.04125-1.0653 0.0474-0.28334 0.0027-0.5918 0.0088-0.68547 0.01343-0.43239 0.02153-0.58103 0.07039-0.68443 0.22499-0.10336 0.15454-0.10977 0.27096-0.01955 0.35535 0.02276 0.02129 0.05443 0.0453 0.07039 0.05336 0.05882 0.02972 0.14708 0.10384 0.19632 0.16485 0.06118 0.07582 0.10178 0.15412 0.13176 0.25413 0.02915 0.09726 0.033 0.25246 0.0087 0.35158-0.02194 0.08957-0.08879 0.22324-0.1456 0.29113-0.14212 0.16985-0.37446 0.2624-0.59381 0.23652zm0.1333-0.35801c0.07813-0.01445 0.1365-0.04476 0.19089-0.09915 0.07127-0.07127 0.09041-0.12315 0.09041-0.24505 0-0.08714-0.0019-0.09719-0.02554-0.1443-0.06799-0.13475-0.21614-0.21087-0.35915-0.18452-0.18866 0.03476-0.30252 0.1821-0.29012 0.37544 0.01355 0.21114 0.18002 0.33704 0.39351 0.29758zm0.03921-2.8144c0.13558-0.03964 0.24041-0.16771 0.25218-0.30806 0.01202-0.14337-0.06429-0.28085-0.19077-0.34367-0.0363-0.01803-0.05222-0.02022-0.14714-0.02022-0.09868 0-0.11013 0.0019-0.15717 0.02376-0.06953 0.03256-0.1026 0.05948-0.13643 0.1111-0.04312 0.06577-0.05807 0.1284-0.05398 0.22608 0.0027 0.06547 0.0078 0.09123 0.02543 0.12869 0.07142 0.15204 0.24543 0.22983 0.40789 0.18232zm2.8049 5.24e-4c0.06981-0.01819 0.12898-0.05186 0.1805-0.10273 0.05387-0.05319 0.07951-0.12403 0.07951-0.21967 0-0.15401-0.06399-0.26453-0.18734-0.32354-0.05243-0.02508-0.06074-0.02648-0.15753-0.02648-0.09304 0-0.10654 2e-3 -0.15087 0.02282-0.06799 0.03187-0.1289 0.09166-0.16214 0.15918-0.02606 0.05294-0.0276 0.06129-0.0276 0.14991 0 0.08358 0.0024 0.09897 0.02226 0.14068 0.0771 0.1622 0.2392 0.24254 0.4032 0.19983z" fill="#a02c2c" stroke="#a02c2c" stroke-width=".0085152"/>
 </g>
</svg>
